<svg xmlns="http://www.w3.org/2000/svg" xmlns:xlink="http://www.w3.org/1999/xlink" width="214" height="214" viewBox="0 0 214 214" fill="none"><defs><rect id="path_0" x="0" y="0" width="214" height="213.99999999999997" /></defs><g opacity="1" transform="translate(0 0)  rotate(0 107 106.99999999999999)"><mask id="bg-mask-0" fill="white"><use xlink:href="#path_0"></use></mask><g mask="url(#bg-mask-0)" ><path id="分组 1" fill-rule="evenodd" style="fill:#D8B4FE" transform="translate(0 6)  rotate(0 106.80466657180787 100.59498773068435)" opacity="1" d="M39.49 61.83C34.54 70.45 24.84 75.18 15 73.77C8.47 72.84 2.39 77.32 1.34 83.84C-0.45 95.01 -0.45 106.4 1.34 117.57C2.39 124.08 8.53 128.59 15.03 127.64C24.87 126.19 34.6 130.89 39.57 139.5C44.55 148.11 43.78 158.89 37.62 166.7C33.55 171.85 34.4 179.43 39.52 183.58C48.32 190.7 58.19 196.38 68.77 200.4C71.75 201.54 75.07 201.44 77.98 200.13C80.88 198.84 83.16 196.47 84.33 193.52C88.03 184.32 96.94 178.29 106.85 178.29C116.76 178.28 125.68 184.3 129.39 193.5C131.86 199.67 138.84 202.72 145.05 200.33C150.28 198.32 155.35 195.9 160.2 193.09C165.08 190.28 169.74 187.08 174.12 183.53C179.29 179.34 180.14 171.77 176.01 166.54C169.88 158.76 169.11 148.02 174.08 139.45C179 130.83 188.7 126.1 198.52 127.52C201.66 127.98 204.85 127.19 207.42 125.32C210.01 123.46 211.75 120.63 212.25 117.47C214.05 106.3 214.06 94.91 212.28 83.74C211.24 77.23 205.1 72.71 198.6 73.66C188.75 75.13 179.01 70.42 174.06 61.78L173.99 61.66C168.97 53.06 169.74 42.26 175.92 34.46C179.99 29.3 179.13 21.73 174 17.58C165.2 10.46 155.33 4.79 144.74 0.79C138.57 -1.55 131.65 1.49 129.21 7.63C127.17 12.71 123.5 16.95 118.76 19.69C112.68 23.19 105.37 23.89 98.73 21.6C92.09 19.31 86.77 14.26 84.14 7.74C81.66 1.57 74.68 -1.47 68.47 0.92C57.95 4.99 48.12 10.68 39.36 17.79C36.87 19.81 35.29 22.73 34.97 25.92C34.65 29.08 35.56 32.24 37.53 34.73C43.68 42.51 44.45 53.25 39.49 61.83Z M132.023 86.0515C123.993 72.1415 106.153 67.3615 92.243 75.3915C78.333 83.4115 73.553 101.282 81.583 115.182C89.613 129.082 107.453 133.862 121.363 125.832C135.273 117.802 140.053 99.9715 132.023 86.0515Z " /></g></g></svg>